<svg width="1135" height="721" viewBox="0 0 1135 721" fill="none" xmlns="http://www.w3.org/2000/svg">
<rect x="297" y="153" width="51" height="418" fill="white"/>
<path d="M313 189.686L348.428 153L538.813 336.853L503.385 373.539L313 189.686Z" fill="white"/>
<path d="M654.147 151L690.21 187.062L503.062 374.21L467 338.147L654.147 151Z" fill="white"/>
<path d="M654 151H705V415.666H654V151Z" fill="white"/>
<path d="M669.648 315.71L705.71 279.648L845.975 419.913L809.913 455.975L669.648 315.71Z" fill="white"/>
<path d="M782.126 203.37L818.188 239.432L737.71 319.91L701.648 283.848L782.126 203.37Z" fill="white"/>
<path d="M579 323H630V571H579V323Z" fill="white"/>
<path d="M579.5 571.5V520.5H827.5V571.5H579.5Z" fill="white"/>
<path d="M1111 364.17C1111 487.867 1053.03 569.397 957.312 621.482C859.785 674.55 722.636 697 567.5 697C412.364 697 275.215 674.55 177.688 621.482C81.9687 569.397 24 487.867 24 364.17C24 240.358 82.0976 156.913 177.975 103.029C275.499 48.2205 412.599 24 567.5 24C722.401 24 859.501 48.2205 957.025 103.029C1052.9 156.913 1111 240.358 1111 364.17Z" stroke="white" stroke-width="48"/>
</svg>
